<svg width="19" height="18" viewBox="0 0 19 18" fill="none" xmlns="http://www.w3.org/2000/svg">
<path d="M15.9141 9.33069C15.9141 10.1771 15.7473 11.0152 15.4234 11.7972C15.0995 12.5792 14.6248 13.2897 14.0263 13.8882C13.4278 14.4867 12.7172 14.9615 11.9353 15.2854C11.1533 15.6093 10.3152 15.776 9.46875 15.776C8.62234 15.776 7.78422 15.6093 7.00224 15.2854C6.22025 14.9615 5.50973 14.4867 4.91123 13.8882C4.31272 13.2897 3.83796 12.5792 3.51406 11.7972C3.19015 11.0152 3.02344 10.1771 3.02344 9.33069C3.02344 7.62129 3.7025 5.98189 4.91123 4.77316C6.11996 3.56443 7.75935 2.88538 9.46875 2.88538C11.1782 2.88538 12.8175 3.56443 14.0263 4.77316C15.235 5.98189 15.9141 7.62129 15.9141 9.33069Z" stroke="#0B0223" stroke-width="1.07422" stroke-linecap="round" stroke-linejoin="round"/>
<path d="M12.2689 9.09584C12.3108 9.11908 12.3458 9.15312 12.3701 9.19442C12.3944 9.23573 12.4073 9.2828 12.4073 9.33074C12.4073 9.37868 12.3944 9.42575 12.3701 9.46705C12.3458 9.50836 12.3108 9.5424 12.2689 9.56563L8.25632 11.795C8.21543 11.8177 8.16932 11.8293 8.12256 11.8287C8.0758 11.8281 8.03 11.8153 7.9897 11.7916C7.94941 11.7679 7.91601 11.734 7.8928 11.6934C7.8696 11.6528 7.85741 11.6069 7.85742 11.5601V7.10138C7.85742 6.89656 8.07728 6.76765 8.25632 6.8672L12.2689 9.09584Z" fill="url(#paint0_linear_61_274)" stroke="url(#paint1_linear_61_274)" stroke-width="1.07422" stroke-linecap="round" stroke-linejoin="round"/>
<defs>
<linearGradient id="paint0_linear_61_274" x1="8.45501" y1="9.33015" x2="11.8586" y2="9.33015" gradientUnits="userSpaceOnUse">
<stop stop-color="#FF42A5"/>
<stop offset="1" stop-color="#FF42A5"/>
</linearGradient>
<linearGradient id="paint1_linear_61_274" x1="8.45501" y1="9.33015" x2="11.8586" y2="9.33015" gradientUnits="userSpaceOnUse">
<stop stop-color="#FF42A5"/>
<stop offset="1" stop-color="#FF42A5"/>
</linearGradient>
</defs>
</svg>
