<svg width="19" height="18" viewBox="0 0 19 18" fill="none" xmlns="http://www.w3.org/2000/svg">
<path d="M11.6172 13.7271C12.2281 13.9045 12.861 13.9942 13.4971 13.9935C14.5201 13.995 15.5297 13.7618 16.4484 13.3118C16.4755 12.6699 16.2927 12.0366 15.9276 11.508C15.5624 10.9794 15.0349 10.5842 14.425 10.3824C13.8151 10.1805 13.156 10.183 12.5476 10.3895C11.9392 10.5959 11.4147 10.995 11.0536 11.5264M11.6172 13.7271V13.725C11.6172 12.9279 11.4124 12.1781 11.0536 11.5264M11.6172 13.7271V13.803C10.239 14.6331 8.65999 15.0705 7.05109 15.0677C5.38175 15.0677 3.81984 14.6058 2.48637 13.803L2.48566 13.725C2.48511 12.7112 2.82197 11.7262 3.44313 10.925C4.0643 10.1239 4.93443 9.5523 5.91635 9.30034C6.89826 9.04838 7.93612 9.13039 8.86628 9.53344C9.79644 9.93649 10.566 10.6377 11.0536 11.5264M9.46879 4.59412C9.46879 5.23514 9.21415 5.84991 8.76087 6.30319C8.3076 6.75646 7.69283 7.01111 7.0518 7.01111C6.41078 7.01111 5.79601 6.75646 5.34273 6.30319C4.88946 5.84991 4.63481 5.23514 4.63481 4.59412C4.63481 3.95309 4.88946 3.33832 5.34273 2.88504C5.79601 2.43177 6.41078 2.17712 7.0518 2.17712C7.69283 2.17712 8.3076 2.43177 8.76087 2.88504C9.21415 3.33832 9.46879 3.95309 9.46879 4.59412ZM15.377 6.20544C15.377 6.70402 15.1789 7.18218 14.8264 7.53472C14.4738 7.88727 13.9957 8.08533 13.4971 8.08533C12.9985 8.08533 12.5204 7.88727 12.1678 7.53472C11.8153 7.18218 11.6172 6.70402 11.6172 6.20544C11.6172 5.70687 11.8153 5.22871 12.1678 4.87617C12.5204 4.52362 12.9985 4.32556 13.4971 4.32556C13.9957 4.32556 14.4738 4.52362 14.8264 4.87617C15.1789 5.22871 15.377 5.70687 15.377 6.20544Z" stroke="#0B0223" stroke-width="1.07422" stroke-linecap="round" stroke-linejoin="round"/>
</svg>
