<svg width="63" height="30" viewBox="0 0 63 30" fill="none" xmlns="http://www.w3.org/2000/svg">
<g clip-path="url(#clip0_61_183)">
<path fill-rule="evenodd" clip-rule="evenodd" d="M15.1602 0.596813L48.6181 0.510498C55.8793 0.510498 62.4824 7.44808 62.4824 14.7525C62.4824 22.0138 56.1706 29.0376 48.1541 29.0376C40.1376 29.0376 35.7032 24.7219 34.6242 18.5396L28.7656 18.3346C27.6866 24.5169 22.0438 29.1671 15.1494 29.1671C8.26573 29.1563 0.875 22.5964 0.875 15.3351C0.875 8.0307 7.8881 0.596813 15.1602 0.596813Z" fill="url(#paint0_linear_61_183)"/>
<path fill-rule="evenodd" clip-rule="evenodd" d="M12.8728 8.2356H17.4043V12.7564H21.9683V17.2879H17.4043V21.8086H12.8728V17.2879H8.35205V12.7564H12.8728V8.2356Z" fill="white"/>
<path fill-rule="evenodd" clip-rule="evenodd" d="M52.772 12.7563C51.5312 12.7563 50.5278 13.749 50.5278 15.0437C50.5278 16.2845 51.5205 17.2879 52.772 17.2879C54.0128 17.2879 55.0594 16.2953 55.0594 15.0437C55.0594 13.7598 54.0236 12.7563 52.772 12.7563Z" fill="white"/>
<path fill-rule="evenodd" clip-rule="evenodd" d="M48.2512 8.2356C47.0104 8.2356 45.9639 9.22822 45.9639 10.4798C45.9639 11.7637 46.9997 12.7671 48.2512 12.7671C49.492 12.7671 50.5386 11.7745 50.5386 10.4798C50.5278 9.22822 49.492 8.2356 48.2512 8.2356Z" fill="white"/>
<path fill-rule="evenodd" clip-rule="evenodd" d="M43.7197 12.7563C42.4789 12.7563 41.4323 13.749 41.4323 15.0437C41.4323 16.2845 42.4681 17.2879 43.7197 17.2879C44.9604 17.2879 45.9639 16.2953 45.9639 15.0437C45.9639 13.7598 44.9712 12.7563 43.7197 12.7563Z" fill="white"/>
<path fill-rule="evenodd" clip-rule="evenodd" d="M48.2512 17.2878C47.0104 17.2878 45.9639 18.3236 45.9639 19.5752C45.9639 20.8268 46.9997 21.8194 48.2512 21.8194C49.492 21.8194 50.5386 20.8268 50.5386 19.5752C50.5278 18.3236 49.492 17.2878 48.2512 17.2878Z" fill="white"/>
</g>
<defs>
<linearGradient id="paint0_linear_61_183" x1="8.96664" y1="14.835" x2="55.0536" y2="14.835" gradientUnits="userSpaceOnUse">
<stop stop-color="#FF42A5"/>
<stop offset="1" stop-color="#FF42A5"/>
</linearGradient>
<clipPath id="clip0_61_183">
<rect width="61.6182" height="28.6458" fill="white" transform="translate(0.875 0.510498)"/>
</clipPath>
</defs>
</svg>
