<svg width="35" height="35" viewBox="0 0 35 35" fill="none" xmlns="http://www.w3.org/2000/svg">
<g clip-path="url(#clip0_62_378)">
<path d="M17.2708 0.166687C7.79306 0.166687 0.0833282 7.87716 0.0833282 17.3542C0.0833282 26.8312 7.79306 34.5417 17.2708 34.5417C26.7486 34.5417 34.4583 26.8312 34.4583 17.3542C34.4583 7.87716 26.7486 0.166687 17.2708 0.166687ZM24.1036 17.9564L14.0776 24.4017C13.9601 24.4779 13.8244 24.5157 13.6901 24.5157C13.5726 24.5157 13.4537 24.4863 13.3474 24.4283C13.1166 24.3024 12.974 24.0617 12.974 23.7995V10.9089C12.974 10.6466 13.1166 10.406 13.3474 10.2801C13.574 10.1556 13.858 10.1633 14.0776 10.3067L24.1036 16.752C24.3078 16.8835 24.4323 17.1108 24.4323 17.3542C24.4323 17.5976 24.3078 17.8248 24.1036 17.9564Z" fill="white"/>
</g>
<defs>
<clipPath id="clip0_62_378">
<rect width="34.375" height="34.375" fill="white" transform="translate(0.0833282 0.166687)"/>
</clipPath>
</defs>
</svg>
