<svg width="63" height="29" viewBox="0 0 63 29" fill="none" xmlns="http://www.w3.org/2000/svg">
<g clip-path="url(#clip0_65_484)">
<path fill-rule="evenodd" clip-rule="evenodd" d="M14.8346 0.329113L48.2925 0.242798C55.5537 0.242798 62.1568 7.18038 62.1568 14.4848C62.1568 21.7461 55.845 28.7699 47.8285 28.7699C39.812 28.7699 35.3776 24.4542 34.2986 18.2719L28.44 18.0669C27.361 24.2492 21.7182 28.8994 14.8238 28.8994C7.94014 28.8886 0.549408 22.3287 0.549408 15.0674C0.549408 7.763 7.56251 0.329113 14.8346 0.329113Z" fill="url(#paint0_linear_65_484)"/>
<path fill-rule="evenodd" clip-rule="evenodd" d="M12.5472 7.9679H17.0788V12.4887H21.6427V17.0202H17.0788V21.5409H12.5472V17.0202H8.02646V12.4887H12.5472V7.9679Z" fill="white"/>
<path fill-rule="evenodd" clip-rule="evenodd" d="M52.4464 12.4888C51.2056 12.4888 50.2022 13.4814 50.2022 14.7761C50.2022 16.0169 51.1948 17.0203 52.4464 17.0203C53.6872 17.0203 54.7338 16.0277 54.7338 14.7761C54.7338 13.4922 53.698 12.4888 52.4464 12.4888Z" fill="white"/>
<path fill-rule="evenodd" clip-rule="evenodd" d="M47.9256 7.9679C46.6848 7.9679 45.6383 8.96052 45.6383 10.2121C45.6383 11.496 46.6741 12.4994 47.9256 12.4994C49.1664 12.4994 50.213 11.5068 50.213 10.2121C50.2022 8.96052 49.1664 7.9679 47.9256 7.9679Z" fill="white"/>
<path fill-rule="evenodd" clip-rule="evenodd" d="M43.3941 12.4888C42.1533 12.4888 41.1068 13.4814 41.1068 14.7761C41.1068 16.0169 42.1425 17.0203 43.3941 17.0203C44.6349 17.0203 45.6383 16.0277 45.6383 14.7761C45.6383 13.4922 44.6457 12.4888 43.3941 12.4888Z" fill="white"/>
<path fill-rule="evenodd" clip-rule="evenodd" d="M47.9256 17.0203C46.6848 17.0203 45.6383 18.056 45.6383 19.3076C45.6383 20.5592 46.6741 21.5518 47.9256 21.5518C49.1664 21.5518 50.213 20.5592 50.213 19.3076C50.2022 18.056 49.1664 17.0203 47.9256 17.0203Z" fill="white"/>
</g>
<defs>
<linearGradient id="paint0_linear_65_484" x1="8.64105" y1="14.5673" x2="54.728" y2="14.5673" gradientUnits="userSpaceOnUse">
<stop stop-color="#FF42A5"/>
<stop offset="1" stop-color="#FF42A5"/>
</linearGradient>
<clipPath id="clip0_65_484">
<rect width="61.6182" height="28.6458" fill="white" transform="translate(0.549408 0.242798)"/>
</clipPath>
</defs>
</svg>
