<svg width="328" height="30" viewBox="0 0 328 30" fill="none" xmlns="http://www.w3.org/2000/svg">
<g clip-path="url(#clip0_65_578)">
<path d="M29.1484 5.91284C28.0831 6.38013 26.948 6.68986 25.7646 6.84025C26.982 6.11336 27.9112 4.97111 28.3481 3.59432C27.213 4.27108 25.9597 4.74911 24.6241 5.01587C23.5463 3.86825 22.0102 3.15747 20.3344 3.15747C17.0831 3.15747 14.4656 5.79647 14.4656 9.03166C14.4656 9.49715 14.505 9.94474 14.6017 10.3708C9.71933 10.1327 5.39918 7.79272 2.497 4.22811C1.99033 5.10718 1.69313 6.11336 1.69313 7.19653C1.69313 9.23039 2.74049 11.0333 4.30169 12.0771C3.35816 12.0592 2.43255 11.7852 1.64837 11.3538C1.64837 11.3717 1.64837 11.3949 1.64837 11.4182C1.64837 14.2721 3.68401 16.6425 6.35344 17.1886C5.87542 17.3193 5.35442 17.3819 4.81373 17.3819C4.43775 17.3819 4.0582 17.3604 3.70191 17.2817C4.46282 19.6073 6.622 21.3171 9.18938 21.3726C7.19134 22.9356 4.65439 23.8774 1.90797 23.8774C1.42636 23.8774 0.964447 23.8559 0.502533 23.7968C3.10393 25.4744 6.18694 26.4322 9.51165 26.4322C20.3183 26.4322 26.2265 17.4804 26.2265 9.72095C26.2265 9.46134 26.2175 9.21069 26.205 8.96183C27.3705 8.13468 28.3499 7.10164 29.1484 5.91284Z" fill="white"/>
</g>
<g clip-path="url(#clip1_65_578)">
<path d="M86.4401 14.7948C86.4401 21.944 81.2021 27.8695 74.3551 28.9438V18.9351H77.6924L78.3275 14.7948H74.3551V12.1082C74.3551 10.9752 74.9101 9.87134 76.6893 9.87134H78.4953V6.34656C78.4953 6.34656 76.856 6.06681 75.2889 6.06681C72.0175 6.06681 69.8792 8.04964 69.8792 11.6393V14.7948H66.2425V18.9351H69.8792V28.9438C63.0322 27.8695 57.7942 21.944 57.7942 14.7948C57.7942 6.88479 64.2071 0.471924 72.1171 0.471924C80.0272 0.471924 86.4401 6.88479 86.4401 14.7948Z" fill="white"/>
<path d="M77.6924 18.935L78.3275 14.7948H74.3551V12.1081C74.3551 10.9754 74.91 9.8713 76.6892 9.8713H78.4953V6.34652C78.4953 6.34652 76.8562 6.06677 75.2891 6.06677C72.0175 6.06677 69.8792 8.0496 69.8792 11.6393V14.7948H66.2425V18.935H69.8792V28.9437C70.6084 29.0581 71.3558 29.1177 72.1171 29.1177C72.8785 29.1177 73.6258 29.0581 74.3551 28.9437V18.935H77.6924Z" fill="#1877F2"/>
</g>
<path d="M155.156 4.95427C154.684 3.2016 153.303 1.82006 151.55 1.3481C148.349 0.471924 135.542 0.471924 135.542 0.471924C135.542 0.471924 122.736 0.471924 119.534 1.31471C117.816 1.78635 116.4 3.20191 115.928 4.95427C115.086 8.15559 115.086 14.7948 115.086 14.7948C115.086 14.7948 115.086 21.4675 115.928 24.6354C116.4 26.3878 117.782 27.7696 119.535 28.2416C122.77 29.1178 135.542 29.1178 135.542 29.1178C135.542 29.1178 148.349 29.1178 151.55 28.275C153.303 27.8033 154.684 26.4215 155.156 24.6691C155.999 21.4675 155.999 14.8286 155.999 14.8286C155.999 14.8286 156.033 8.15559 155.156 4.95427Z" fill="white"/>
<path d="M131.465 20.9284L142.114 14.7948L131.465 8.66125V20.9284Z" fill="#FF0000"/>
<path d="M210.42 26.2532V26.2523H210.426V17.8476C210.426 13.7361 209.541 10.5687 204.734 10.5687C202.423 10.5687 200.873 11.8369 200.24 13.0389H200.173V10.9526H195.615V26.2523H200.361V18.6764C200.361 16.6817 200.739 14.7527 203.209 14.7527C205.643 14.7527 205.679 17.0292 205.679 18.8041V26.2532H210.42Z" fill="white"/>
<path d="M187.888 10.9534H192.639V26.2531H187.888V10.9534Z" fill="white"/>
<path d="M190.261 3.33655C188.742 3.33655 187.509 4.56918 187.509 6.08855C187.509 7.60793 188.742 8.86634 190.261 8.86634C191.781 8.86634 193.013 7.60793 193.013 6.08855C193.012 4.56918 191.78 3.33655 190.261 3.33655Z" fill="white"/>
<g clip-path="url(#clip2_65_578)">
<path d="M270.554 8.89388C270.487 7.37181 270.241 6.32541 269.888 5.41868C269.525 4.45622 268.965 3.59453 268.232 2.8782C267.516 2.15072 266.648 1.58544 265.697 1.22738C264.785 0.874791 263.744 0.628655 262.222 0.561547C260.689 0.488755 260.202 0.471924 256.313 0.471924C252.423 0.471924 251.937 0.488755 250.409 0.555864C248.887 0.622972 247.84 0.869326 246.934 1.2217C245.971 1.58544 245.109 2.14504 244.393 2.8782C243.666 3.59453 243.101 4.4619 242.742 5.41322C242.39 6.32541 242.144 7.36613 242.076 8.88819C242.004 10.4216 241.987 10.9084 241.987 14.7976C241.987 18.6868 242.004 19.1737 242.071 20.7014C242.138 22.2235 242.384 23.2699 242.737 24.1766C243.101 25.1391 243.666 26.0008 244.393 26.7171C245.109 27.4446 245.977 28.0098 246.928 28.3679C247.84 28.7205 248.881 28.9666 250.403 29.0337C251.931 29.1011 252.418 29.1177 256.307 29.1177C260.196 29.1177 260.683 29.1011 262.211 29.0337C263.733 28.9666 264.779 28.7205 265.686 28.3679C267.611 27.6236 269.133 26.1015 269.877 24.1766C270.23 23.2644 270.476 22.2235 270.543 20.7014C270.61 19.1737 270.627 18.6868 270.627 14.7976C270.627 10.9084 270.621 10.4216 270.554 8.89388ZM267.975 20.5895C267.913 21.9885 267.678 22.7439 267.482 23.2476C267.001 24.4955 266.01 25.486 264.762 25.9673C264.259 26.1632 263.498 26.3982 262.104 26.4596C260.593 26.5269 260.14 26.5435 256.318 26.5435C252.496 26.5435 252.037 26.5269 250.532 26.4596C249.133 26.3982 248.377 26.1632 247.874 25.9673C247.253 25.7378 246.687 25.374 246.229 24.8984C245.753 24.4339 245.389 23.8743 245.16 23.2533C244.964 22.7496 244.729 21.9885 244.667 20.5952C244.6 19.0842 244.583 18.6309 244.583 14.8088C244.583 10.9867 244.6 10.5279 244.667 9.02263C244.729 7.62363 244.964 6.86818 245.16 6.36454C245.389 5.7433 245.753 5.17823 246.234 4.71919C246.699 4.24353 247.258 3.87979 247.879 3.65049C248.383 3.45463 249.144 3.21964 250.538 3.158C252.048 3.09089 252.502 3.07406 256.324 3.07406C260.151 3.07406 260.605 3.09089 262.11 3.158C263.509 3.21964 264.265 3.45463 264.768 3.65049C265.389 3.87979 265.954 4.24353 266.413 4.71919C266.889 5.1837 267.253 5.7433 267.482 6.36454C267.678 6.86818 267.913 7.6291 267.975 9.02263C268.042 10.5335 268.059 10.9867 268.059 14.8088C268.059 18.6309 268.042 19.0786 267.975 20.5895Z" fill="white"/>
<path d="M256.313 7.43896C252.25 7.43896 248.954 10.7349 248.954 14.7977C248.954 18.8605 252.25 22.1564 256.313 22.1564C260.375 22.1564 263.671 18.8605 263.671 14.7977C263.671 10.7349 260.375 7.43896 256.313 7.43896ZM256.313 19.5711C253.677 19.5711 251.539 17.4335 251.539 14.7977C251.539 12.1619 253.677 10.0243 256.313 10.0243C258.948 10.0243 261.086 12.1619 261.086 14.7977C261.086 17.4335 258.948 19.5711 256.313 19.5711Z" fill="white"/>
<path d="M265.68 7.14798C265.68 8.09667 264.911 8.8659 263.962 8.8659C263.014 8.8659 262.244 8.09667 262.244 7.14798C262.244 6.19906 263.014 5.43005 263.962 5.43005C264.911 5.43005 265.68 6.19906 265.68 7.14798Z" fill="white"/>
</g>
<g clip-path="url(#clip3_65_578)">
<path d="M318.921 0.471924C317.394 0.577555 315.609 1.55509 314.569 2.82803C313.62 3.98281 312.839 5.69797 313.143 7.36479C314.812 7.41671 316.536 6.4159 317.535 5.12147C318.47 3.91656 319.177 2.21215 318.921 0.471924Z" fill="white"/>
<path d="M324.956 10.0826C323.49 8.24393 321.429 7.17688 319.483 7.17688C316.914 7.17688 315.827 8.40685 314.042 8.40685C312.202 8.40685 310.803 7.18046 308.582 7.18046C306.399 7.18046 304.075 8.51427 302.602 10.7952C300.53 14.0071 300.885 20.0459 304.242 25.1896C305.443 27.0301 307.047 29.0998 309.146 29.1177C311.013 29.1356 311.539 27.9199 314.069 27.9074C316.599 27.8931 317.079 29.1338 318.942 29.1141C321.043 29.098 322.734 26.8045 323.936 24.964C324.797 23.6446 325.117 22.9803 325.785 21.4908C320.928 19.6413 320.149 12.7341 324.956 10.0826Z" fill="white"/>
</g>
<defs>
<clipPath id="clip0_65_578">
<rect width="28.6458" height="28.6458" fill="white" transform="translate(0.502533 0.471924)"/>
</clipPath>
<clipPath id="clip1_65_578">
<rect width="28.6458" height="28.6458" fill="white" transform="translate(57.7942 0.471924)"/>
</clipPath>
<clipPath id="clip2_65_578">
<rect width="28.6458" height="28.6458" fill="white" transform="translate(241.937 0.471924)"/>
</clipPath>
<clipPath id="clip3_65_578">
<rect width="28.6458" height="28.6458" fill="white" transform="translate(299.228 0.471924)"/>
</clipPath>
</defs>
</svg>
