<svg width="54" height="19" viewBox="0 0 54 19" fill="none" xmlns="http://www.w3.org/2000/svg">
<g clip-path="url(#clip0_61_244)">
<path d="M42.803 9.86499C41.4401 9.86499 40.339 10.9661 40.3591 12.3156C40.3726 13.1816 40.8493 13.9336 41.5509 14.3532C41.3125 13.9873 41.1715 13.5543 41.1648 13.0876C41.1447 11.7382 42.2457 10.6371 43.6087 10.6371C43.8772 10.6371 44.1357 10.6807 44.3774 10.7579V8.0556C44.1256 8.01868 43.8671 7.99854 43.6087 7.99854C43.5952 7.99854 43.5852 7.99854 43.5717 7.99854V9.98584C43.33 9.90863 43.0715 9.86499 42.803 9.86499Z" fill="#F00044"/>
<path d="M48.6944 1.76147H48.6743H47.976C48.1774 2.77191 48.7448 3.65143 49.537 4.24896C49.0167 3.56079 48.7011 2.70142 48.6944 1.76147Z" fill="#F00044"/>
<path d="M52.8033 5.87366C52.5381 5.87366 52.283 5.8468 52.0312 5.7998V7.73676C51.1181 7.73676 50.2319 7.55884 49.3994 7.203C48.8623 6.97473 48.3621 6.68268 47.9022 6.3302L47.9156 12.3022C47.9089 13.645 47.3785 14.9038 46.4184 15.8538C45.6362 16.6259 44.646 17.1194 43.5717 17.2772C43.32 17.3141 43.0615 17.3342 42.803 17.3342C41.6549 17.3342 40.5606 16.9616 39.671 16.2734C39.7717 16.3943 39.8791 16.5118 39.9966 16.6259C40.9634 17.5793 42.2457 18.1063 43.612 18.1063C43.8705 18.1063 44.129 18.0862 44.3808 18.0493C45.455 17.8915 46.4453 17.398 47.2274 16.6259C48.1875 15.6759 48.7179 14.4171 48.7246 13.0743L48.6743 7.1023C49.1308 7.45477 49.631 7.75018 50.1715 7.9751C51.0073 8.32758 51.8936 8.50885 52.8033 8.50885" fill="#F00044"/>
<path d="M39.9865 9.48578C40.9433 8.53577 42.2155 8.00873 43.5717 7.99866V7.28363C43.32 7.2467 43.0615 7.22656 42.803 7.22656C41.4334 7.22656 40.1477 7.7536 39.1809 8.71368C38.2309 9.65698 37.687 10.946 37.6904 12.2855C37.6904 13.6349 38.2242 14.9005 39.1876 15.8572C39.342 16.0083 39.4998 16.1493 39.6676 16.2769C38.909 15.3738 38.4961 14.2459 38.4927 13.0576C38.4961 11.7181 39.0365 10.4291 39.9865 9.48578Z" fill="#08FFF9"/>
<path d="M52.0312 5.79968V5.0813H52.0245C51.0913 5.0813 50.2319 4.77246 49.5404 4.24878C50.1413 5.04102 51.0208 5.60498 52.0312 5.79968Z" fill="#08FFF9"/>
<path d="M43.471 15.4644C43.7899 15.4811 44.0954 15.4375 44.3774 15.3469C45.3509 15.028 46.0525 14.1216 46.0525 13.0541L46.0559 9.05933V1.76135H47.976C47.9257 1.50958 47.8988 1.25446 47.8955 0.989258H45.2502V8.28387L45.2468 12.2786C45.2468 13.3461 44.5452 14.2525 43.5717 14.5714C43.2897 14.6654 42.9843 14.709 42.6654 14.6889C42.2592 14.6654 41.8798 14.5446 41.5509 14.3499C41.9638 14.9877 42.6687 15.4207 43.471 15.4644Z" fill="#08FFF9"/>
<path d="M43.5717 17.2772C44.646 17.1194 45.6363 16.626 46.4184 15.8539C47.3785 14.9039 47.9089 13.645 47.9156 12.3022L47.9022 6.33026C48.3587 6.68274 48.8589 6.97815 49.3994 7.20306C50.2353 7.55554 51.1215 7.73682 52.0312 7.73682V5.79987C51.0208 5.60516 50.1413 5.0412 49.5404 4.24896C48.7481 3.65143 48.1775 2.77191 47.9794 1.76147H46.0559V9.05609L46.0525 13.0508C46.0525 14.1183 45.3509 15.0247 44.3774 15.3436C44.0954 15.4376 43.7899 15.4813 43.471 15.4611C42.6654 15.4175 41.9638 14.9844 41.5509 14.35C40.8493 13.9337 40.3726 13.1784 40.3592 12.3123C40.339 10.9628 41.4401 9.86175 42.803 9.86175C43.0716 9.86175 43.33 9.9054 43.5717 9.9826V7.9953C42.2155 8.00537 40.9433 8.53241 39.9865 9.48242C39.0365 10.4257 38.4927 11.7148 38.4961 13.0508C38.4961 14.2392 38.909 15.3671 39.671 16.2701C40.5639 16.9583 41.6549 17.3309 42.803 17.3309C43.0615 17.3343 43.32 17.3141 43.5717 17.2772Z" fill="black"/>
</g>
<path d="M20.1872 0.955811H5.98723C3.20122 0.955811 0.942719 3.21431 0.942719 6.00032V13.0988C0.942719 15.8848 3.20122 18.1433 5.98723 18.1433H20.1872C22.9732 18.1433 25.2317 15.8848 25.2317 13.0988V6.00032C25.2317 3.21431 22.9732 0.955811 20.1872 0.955811ZM16.7756 9.89493L10.1338 13.0627C9.95686 13.1471 9.75243 13.018 9.75243 12.822V6.28852C9.75243 6.08968 9.96224 5.96081 10.1396 6.05069L16.7814 9.41642C16.9788 9.51647 16.9754 9.79967 16.7756 9.89493Z" fill="#F61C0D"/>
<defs>
<clipPath id="clip0_61_244">
<rect width="17.1875" height="17.1875" fill="white" transform="translate(36.69 0.955811)"/>
</clipPath>
</defs>
</svg>
